<svg width="37" height="22" viewBox="0 0 37 22" fill="none" xmlns="http://www.w3.org/2000/svg">
<g id="Group 1">
<path id="Vector" d="M19.1922 21.2637L36.2637 4.19214C36.6264 3.82949 36.5686 3.1838 36.1347 2.74987L34.1705 0.785682C33.7365 0.351744 33.0908 0.293959 32.7282 0.656607L15.6566 17.7282C15.294 18.0908 15.3518 18.7365 15.7857 19.1705L17.7499 21.1346C18.1838 21.5686 18.8295 21.6264 19.1922 21.2637Z" fill="#5B78C7"/>
<path id="Vector_2" d="M0.718593 4.1923L17.7902 21.2639C18.1528 21.6265 18.7985 21.5687 19.2324 21.1348L21.1966 19.1706C21.6306 18.7367 21.6884 18.091 21.3257 17.7283L4.25413 0.65677C3.89148 0.294122 3.24579 0.351907 2.81185 0.785845L0.847668 2.75003C0.41373 3.18397 0.355945 3.82966 0.718593 4.1923Z" fill="#5B78C7"/>
</g>
</svg>
