<svg width="29" height="16" viewBox="0 0 29 16" fill="none" xmlns="http://www.w3.org/2000/svg">
<g id="Group 1">
<path id="Vector" d="M15.0194 15.4435L28.4225 3.0447C28.7072 2.78132 28.6618 2.31237 28.3212 1.9972L26.779 0.57065C26.4384 0.255488 25.9314 0.21352 25.6467 0.476905L12.2436 12.8757C11.9588 13.1391 12.0042 13.608 12.3449 13.9232L13.887 15.3498C14.2277 15.6649 14.7346 15.7069 15.0194 15.4435Z" fill="black"/>
<path id="Vector_2" d="M0.515491 3.04481L13.9186 15.4436C14.2034 15.707 14.7103 15.665 15.051 15.3499L16.5931 13.9233C16.9338 13.6082 16.9792 13.1392 16.6944 12.8758L3.29129 0.477012C3.00657 0.213627 2.49963 0.255596 2.15894 0.570757L0.61683 1.99731C0.276139 2.31247 0.230771 2.78143 0.515491 3.04481Z" fill="black"/>
</g>
</svg>
