<svg width="21" height="21" viewBox="0 0 21 21" fill="none" xmlns="http://www.w3.org/2000/svg">
<g id="Group 1">
<path id="Vector" d="M3.25415 20.3257L20.3257 3.25414C20.6884 2.89149 20.7239 2.33912 20.4051 2.02031L18.962 0.577233C18.6432 0.258422 18.0908 0.293954 17.7282 0.656602L0.656612 17.7282C0.293964 18.0908 0.258432 18.6432 0.577243 18.962L2.02032 20.4051C2.33913 20.7239 2.8915 20.6884 3.25415 20.3257Z" fill="white"/>
<path id="Vector_2" d="M0.656585 3.25415L17.7282 20.3257C18.0908 20.6884 18.6432 20.7239 18.962 20.4051L20.4051 18.962C20.7239 18.6432 20.6883 18.0908 20.3257 17.7282L3.25412 0.656612C2.89147 0.293964 2.3391 0.258432 2.02029 0.577243L0.577216 2.02032C0.258405 2.33913 0.293937 2.8915 0.656585 3.25415Z" fill="white"/>
</g>
</svg>
