<svg width="20" height="24" viewBox="0 0 20 24" fill="none" xmlns="http://www.w3.org/2000/svg">
<g id="Group 2">
<path id="Vector" d="M3.67347 23.1429L3.67347 0.857142C3.67347 0.383731 3.30801 -7.15255e-07 2.85714 -7.15255e-07H0.816327C0.365459 -7.15255e-07 0 0.383731 0 0.857142L0 23.1429C0 23.6163 0.365459 24 0.816327 24H2.85714C3.30801 24 3.67347 23.6163 3.67347 23.1429ZM11.8367 23.1429L11.8367 0.857142C11.8367 0.383731 11.4713 -7.15255e-07 11.0204 -7.15255e-07H8.97959C8.52872 -7.15255e-07 8.16327 0.383731 8.16327 0.857142L8.16327 23.1429C8.16327 23.6163 8.52872 24 8.97959 24H11.0204C11.4713 24 11.8367 23.6163 11.8367 23.1429ZM20 23.1429L20 0.857142C20 0.383731 19.6345 -7.15255e-07 19.1837 -7.15255e-07H17.1429C16.692 -7.15255e-07 16.3265 0.383731 16.3265 0.857142L16.3265 23.1429C16.3265 23.6163 16.692 24 17.1429 24H19.1837C19.6345 24 20 23.6163 20 23.1429Z" fill="black"/>
</g>
</svg>
