<svg width="29" height="16" viewBox="0 0 29 16" fill="none" xmlns="http://www.w3.org/2000/svg">
<g id="toTop">
<path id="Vector" d="M13.9186 0.476966L0.515495 12.8758C0.230775 13.1392 0.276143 13.6081 0.616834 13.9233L2.15894 15.3498C2.49963 15.665 3.00657 15.707 3.29129 15.4436L16.6944 3.04477C16.9792 2.78138 16.9338 2.31243 16.5931 1.99727L15.051 0.570711C14.7103 0.25555 14.2034 0.213581 13.9186 0.476966Z" fill="white"/>
<path id="Vector_2" d="M28.4225 12.8757L15.0194 0.476859C14.7346 0.213474 14.2277 0.255442 13.887 0.570604L12.3449 1.99716C12.0042 2.31232 11.9588 2.78127 12.2436 3.04466L25.6467 15.4435C25.9314 15.7068 26.4384 15.6649 26.779 15.3497L28.3212 13.9232C28.6618 13.608 28.7072 13.139 28.4225 12.8757Z" fill="white"/>
</g>
</svg>
